<svg width="72" height="72" viewBox="0 0 72 72" fill="none" xmlns="http://www.w3.org/2000/svg">
<path d="M57 27V18C57 16.4087 56.3679 14.8826 55.2426 13.7574C54.1174 12.6321 52.5913 12 51 12H21C19.4087 12 17.8826 12.6321 16.7574 13.7574C15.6321 14.8826 15 16.4087 15 18V27" stroke="#986131" stroke-width="5" stroke-linecap="round" stroke-linejoin="round"/>
<path d="M9 33V48C9 49.5913 9.63214 51.1174 10.7574 52.2426C11.8826 53.3679 13.4087 54 15 54H57C58.5913 54 60.1174 53.3679 61.2426 52.2426C62.3679 51.1174 63 49.5913 63 48V33C63 31.4087 62.3679 29.8826 61.2426 28.7574C60.1174 27.6321 58.5913 27 57 27C55.4087 27 53.8826 27.6321 52.7574 28.7574C51.6321 29.8826 51 31.4087 51 33V39H21V33C21 31.4087 20.3679 29.8826 19.2426 28.7574C18.1174 27.6321 16.5913 27 15 27C13.4087 27 11.8826 27.6321 10.7574 28.7574C9.63214 29.8826 9 31.4087 9 33Z" stroke="#986131" stroke-width="5" stroke-linecap="round" stroke-linejoin="round"/>
<path d="M15 54V60" stroke="#986131" stroke-width="5" stroke-linecap="round" stroke-linejoin="round"/>
<path d="M57 54V60" stroke="#986131" stroke-width="5" stroke-linecap="round" stroke-linejoin="round"/>
</svg>
